:SAMPLES-PER-SECOND 30
:FRAME-RANGE 1-564
:FULLY-SPECIFIED
:DEGREES
194
root  26.807 38.617 73.2515 -174.676 -25.2861 -178.928
RightUpLeg  -22.4423 -6.09375 -7.95761
RightLeg  3.13234 -14.8474 0.33521
RightFoot  -1.99006 -0.534296 6.35945
RightToes  1.21801e-010 1.2921e-014 -6.02303e-014
Spine  -7.65621 -3.60984 -0.0359063
Spine1  8.74833 -4.85991 3.62353
HEad  14.5222 -0.930209 0.717401
LeftShoulder1  1.41819 -2.64098 -17.4554
LeftArm  6.75907 9.76603 -42.4954
LeftForeArm  1.13938 -60.0387 -19.9263
LeftHand  0.0990784 2.7352 -5.13961
RightShoulder  1.12907 0.370132 24.526
RightArm  0.344017 -0.641673 41.5029
RightForeArm  15.5437 59.7243 18.1899
RightHand  -0.0267139 -6.49116 -0.531583
LeftUpLeg  7.00666 6.64969 8.02119
LeftLeg  10.6943 12.2211 4.6179
LeftFoot  -15.8385 -0.575327 -16.9492
LeftToes  1.70735e-010 3.74918e-011 3.68705e-011
195
root  26.9939 38.6798 71.852 -175.108 -22.218 -177.439
RightUpLeg  -22.4338 -4.19669 -5.31623
RightLeg  4.27793 -13.0679 0.154957
RightFoot  2.66375 -0.97035 8.03575
RightToes  1.21801e-010 1.2921e-014 -6.02303e-014
Spine  -8.18094 -3.76625 1.16301
Spine1  9.62356 -5.44672 4.47938
HEad  14.6016 1.3258 0.455571
LeftShoulder1  1.46571 -2.78235 -17.702
LeftArm  6.23691 10.4054 -41.7982
LeftForeArm  0.455245 -59.1204 -19.2004
LeftHand  0.0789832 2.44677 -3.73898
RightShoulder  1.04973 0.0199443 25.3952
RightArm  1.09494 -0.751395 41.8062
RightForeArm  16.0583 59.373 17.8514
RightHand  -0.0267116 -6.59481 -0.812284
LeftUpLeg  8.99735 7.02027 10.7535
LeftLeg  11.7286 13.4333 4.70774
LeftFoot  -13.3967 -0.315038 -21.7659
LeftToes  1.70735e-010 3.74918e-011 3.68705e-011
196
root  27.2428 38.7001 70.3948 -175.315 -18.7037 -176.319
RightUpLeg  -23.3492 -3.43164 -2.78063
RightLeg  8.04563 -10.4451 0.474893
RightFoot  3.56317 -1.02969 8.04601
RightToes  1.21801e-010 1.2921e-014 -6.02303e-014
Spine  -7.97435 -3.97976 2.02653
Spine1  9.29799 -5.80506 5.0291
HEad  15.2174 4.30877 -0.115265
LeftShoulder1  1.43585 -2.55972 -18.1392
LeftArm  5.67004 11.9627 -40.8192
LeftForeArm  0.149638 -58.2726 -18.5406
LeftHand  0.102569 2.05759 -4.05059
RightShoulder  1.01537 -0.16294 26.162
RightArm  2.1315 -1.14936 42.3896
RightForeArm  17.1352 58.9752 17.4268
RightHand  -0.0258399 -6.67009 -0.873745
LeftUpLeg  9.50242 6.12663 12.8833
LeftLeg  16.2529 15.7827 5.73849
LeftFoot  -10.0479 0.369514 -26.9895
LeftToes  1.70735e-010 3.74918e-011 3.68705e-011
197
root  27.5087 38.7571 68.9807 -175.489 -15.3737 -175.384
RightUpLeg  -23.3715 -2.76025 -0.156611
RightLeg  10.7427 -7.50799 0.815297
RightFoot  3.4997 -0.811204 6.40563
RightToes  1.21801e-010 1.2921e-014 -6.02303e-014
Spine  -7.76593 -4.38794 2.89356
Spine1  9.3436 -6.22885 5.32156
HEad  15.5782 7.85048 -0.817156
LeftShoulder1  1.43051 -2.4605 -18.4943
LeftArm  4.49728 14.1358 -39.8266
LeftForeArm  -0.572081 -57.6265 -18.1066
LeftHand  0.12652 1.91347 -4.66567
RightShoulder  0.999405 -0.270946 26.8066
RightArm  3.55453 -1.10898 43.0454
RightForeArm  17.672 58.7433 17.1939
RightHand  -0.0227026 -6.93461 -1.05023
LeftUpLeg  7.69736 5.27407 14.1203
LeftLeg  24.7501 18.3354 9.31477
LeftFoot  -4.49889 1.7245 -27.8868
LeftToes  1.70735e-010 3.74918e-011 3.68705e-011
198
root  27.7113 38.8678 67.6405 -176.076 -13.0916 -174.22
RightUpLeg  -21.8817 -1.37015 2.13874
RightLeg  11.9699 -6.47193 1.07316
RightFoot  2.77091 -0.454617 3.82372
RightToes  1.21801e-010 1.2921e-014 -6.02303e-014
Spine  -7.07107 -5.03941 4.29053
Spine1  9.4167 -6.89301 5.33253
HEad  15.5347 11.0275 -1.27694
LeftShoulder1  1.4688 -2.58046 -18.6513
LeftArm  3.27544 16.0736 -39.1888
LeftForeArm  -1.42739 -57.0617 -17.7614
LeftHand  0.154265 1.5809 -5.04924
RightShoulder  0.930745 -0.491366 26.9306
RightArm  4.77406 -1.01212 43.9376
RightForeArm  18.5552 58.8324 17.1703
RightHand  -0.0202643 -7.0951 -1.1658
LeftUpLeg  3.47732 6.51683 15.6091
LeftLeg  36.0368 17.3796 13.4741
LeftFoot  2.36889 1.6675 -13.9352
LeftToes  1.70735e-010 3.74918e-011 3.68705e-011
